# xmcd
#
# Track frame offsets:
#	150
#	1403
#	9317
#	21103
#	30849
#	47015
#	58367
#	67831
#	79610
#	89382
#	99011
#	109594
#	121019
#	128995
#	133285
#	142892
#	161198
#	179059
#
# Disc length: 2570 seconds
#
# Revision: 2
# Processed by: cddbd v1.5.1PL0 Copyright (c) Steve Scherf et al.
# Submitted via: audiograbber 1.80
#
DISCID=e00a0812
DTITLE=Ralph Stanley with Roy Lee Centers, Ricky Skaggs and Keith Whitley - Classic Mountain Music
DYEAR=1900
DGENRE=
TTITLE0=Introduction by Bill Vernon
TTITLE1=Pig in a Pen
TTITLE2=Nobody's Lovie is Like Mine
TTITLE3=Black Mountain Rag
TTITLE4=Little Glass of Wine
TTITLE5=Clinch Mountain Backstep
TTITLE6=Blue Yodel #3
TTITLE7=I Just Think I'll Go Away
TTITLE8=Stone Walls and Steel Bars
TTITLE9=The Kitten and the Cat
TTITLE10=Love Me Darling Just Tonight
TTITLE11=Roll in My Sweet Baby's Arms
TTITLE12=Let's Go to the Fair
TTITLE13=Ricky's Record Commercial
TTITLE14=Pretty Little Indian
TTITLE15=Little Maggie - Pretty Polly
TTITLE16=Why Me Ralph
TTITLE17=Katy Daley
EXTD=
EXTT0=
EXTT1=
EXTT2=
EXTT3=
EXTT4=
EXTT5=
EXTT6=
EXTT7=
EXTT8=
EXTT9=
EXTT10=
EXTT11=
EXTT12=
EXTT13=
EXTT14=
EXTT15=
EXTT16=
EXTT17=
PLAYORDER=
